<?xml version="1.0" encoding="utf-8"?>
<!-- Generator: Adobe Illustrator 21.1.0, SVG Export Plug-In . SVG Version: 6.00 Build 0)  -->
<svg version="1.1" id="Capa_1" xmlns="http://www.w3.org/2000/svg" xmlns:xlink="http://www.w3.org/1999/xlink" x="0px" y="0px"
	 viewBox="0 0 274.3 253.4" style="enable-background:new 0 0 274.3 253.4;" xml:space="preserve">
<style type="text/css">
	.st0{fill:#54C08B;stroke:#000000;stroke-width:0.25;}
</style>
<path class="st0" d="M274.1,50.3c-0.6-22.4-15-37.9-31.7-45.7c-20-9.3-43.3-3.7-57.7,11c-5.1,5.3-8.9,12-16,18.7
	c-12.3,11.7-20,15.1-31.7,15.3c-18.7,0.3-30.8-11.1-33.5-13.4c-4.9-4-5.8-9.6-11-15c-13-13.4-37.3-25.9-63-14
	C-17.2,29-9.2,112,60.6,107.3c9.9,1,16.8,5.3,22.5,11c2.3,2.3,5.5,5.8,8,10c2.8,4.7,6.2,12.2,7,16c1.6,7.7,1.7,13.7-1.7,22.3
	c-3.1,8-9.7,16.4-10.9,22.6c-6.8,36.4,20.5,64.1,52,64c27.5-0.1,58.3-25.7,51-63c-1.4-7.2-5.6-13.9-9.5-21.3
	c-3.9-7.3-3.1-20.6-0.7-31.3c3.5-9,5.9-12.3,11.3-18c2.9-3,16.1-10.9,24.8-12.4c9.5-1.6,17.7-1.6,25.5-4.6
	C259.6,95.3,274.8,74.3,274.1,50.3L274.1,50.3z M51.8,82.4c-14.9,0-27-12.2-27-27.3s12.1-27.3,27-27.3c14.9,0,27,12.2,27,27.3
	S66.7,82.4,51.8,82.4z M137.1,228c-14.9,0-27-12.2-27-27.3s12.1-27.3,27-27.3s27,12.2,27,27.3S152,228,137.1,228z M137.1,130
	c-14.9,0-27-12.2-27-27.3s12.1-27.3,27-27.3c14.9,0,27,12.2,27,27.3S152,130,137.1,130L137.1,130z M221.8,80.4
	c-14.9,0-27-12.2-27-27.3s12.1-27.3,27-27.3c14.9,0,27,12.2,27,27.3S236.7,80.4,221.8,80.4z"/>
</svg>
