<?xml version="1.0" encoding="utf-8"?>
<!-- Generator: Adobe Illustrator 16.0.0, SVG Export Plug-In . SVG Version: 6.00 Build 0)  -->
<!DOCTYPE svg PUBLIC "-//W3C//DTD SVG 1.1//EN" "http://www.w3.org/Graphics/SVG/1.1/DTD/svg11.dtd">
<svg version="1.1" id="Layer_1" xmlns="http://www.w3.org/2000/svg" xmlns:xlink="http://www.w3.org/1999/xlink" x="0px" y="0px"
	 width="256.841px" height="142.842px" viewBox="0 0 256.841 142.842" enable-background="new 0 0 256.841 142.842"
	 xml:space="preserve">
<path fill="#FFFFFF" d="M0.519,71.01c55.038,56.267,90.136,71.871,128.195,71.832c38.058-0.039,72.403-14.479,128.127-71.783v0.773
	C201.803,15.566,166.704-0.038,128.646,0C90.587,0.039,56.243,14.479,0.519,71.783"/>
<circle fill="#7AC943" cx="128.645" cy="72.193" r="55.041"/>
<path fill="#FFFFFF" d="M119.806,54.53c0-0.617,0-1.022,0-1.427c-0.001-4.545-0.006-9.089,0.002-13.633
	c0.002-2.062,1.144-3.297,3.164-3.315c3.786-0.035,7.573-0.034,11.359,0.001c2.028,0.018,3.171,1.242,3.174,3.303
	c0.008,4.545,0.002,9.089,0.002,13.633c0,0.408,0,0.816,0,1.504c1.465-1.029,2.745-1.919,4.016-2.822
	c2.847-2.022,5.677-4.068,8.537-6.073c1.466-1.028,3.321-0.671,4.366,0.788c2.165,3.023,4.324,6.05,6.477,9.082
	c1.239,1.747,0.943,3.436-0.812,4.688c-5.138,3.667-10.277,7.331-15.414,11c-0.179,0.129-0.331,0.297-0.588,0.53
	c0.226,0.236,0.394,0.477,0.618,0.637c5.103,3.649,10.211,7.292,15.319,10.934c1.836,1.31,2.135,2.947,0.851,4.761
	c-2.127,3.002-4.264,6-6.396,8.998c-1.081,1.521-2.926,1.901-4.451,0.829c-3.775-2.659-7.523-5.36-11.285-8.043
	c-0.332-0.234-0.687-0.437-1.169-0.741c-0.028,0.513-0.063,0.868-0.063,1.225c-0.005,4.582,0,9.164-0.005,13.746
	c-0.003,2.187-1.151,3.368-3.329,3.382c-3.674,0.02-7.347,0.021-11.02,0c-2.19-0.011-3.348-1.188-3.351-3.359
	c-0.006-4.92-0.003-9.84-0.003-15.051c-0.822,0.559-1.483,0.989-2.127,1.446c-3.459,2.462-6.902,4.945-10.376,7.388
	c-1.547,1.088-3.348,0.733-4.45-0.806c-2.166-3.022-4.328-6.049-6.48-9.081c-1.188-1.673-0.878-3.419,0.805-4.619
	c5.137-3.664,10.279-7.324,15.415-10.993c0.206-0.146,0.373-0.348,0.7-0.658c-1.18-0.861-2.279-1.677-3.393-2.473
	c-4.187-2.994-8.376-5.984-12.568-8.971c-1.895-1.35-2.188-2.957-0.854-4.836c2.108-2.973,4.222-5.942,6.331-8.913
	c1.121-1.579,2.953-1.956,4.532-0.842c3.743,2.64,7.456,5.322,11.187,7.981C118.881,53.982,119.267,54.195,119.806,54.53z
	 M129.25,76.991c0.302-0.226,0.7-0.374,0.718-0.562c0.092-0.919,0.469-1.468,1.449-1.553c0.128-0.011,0.223-0.406,0.332-0.625
	c-0.213-0.103-0.426-0.289-0.639-0.289C129.737,73.961,128.99,75.093,129.25,76.991z M130.431,79.105
	c0.093,0.09,0.186,0.183,0.279,0.273c1.985-0.123,2.674-0.92,2.334-2.966c-0.305,0.213-0.632,0.479-0.684,0.794
	c-0.113,0.693-0.423,1.047-1.125,1.199C130.931,78.473,130.696,78.861,130.431,79.105z"/>
<path fill="#FFFFFF" d="M129.25,76.991c-0.26-1.898,0.487-3.03,1.86-3.028c0.213,0,0.426,0.188,0.639,0.289
	c-0.109,0.219-0.204,0.614-0.332,0.625c-0.98,0.085-1.357,0.634-1.449,1.553C129.95,76.617,129.552,76.766,129.25,76.991z"/>
<path fill="#FFFFFF" d="M130.431,79.105c0.266-0.244,0.5-0.633,0.805-0.698c0.702-0.152,1.012-0.507,1.125-1.199
	c0.052-0.313,0.379-0.581,0.684-0.794c0.34,2.046-0.349,2.843-2.334,2.966C130.616,79.287,130.523,79.195,130.431,79.105z"/>
</svg>
